<?xml version="1.0" standalone="no"?>
<!DOCTYPE svg PUBLIC "-//W3C//DTD SVG 20010904//EN"
 "http://www.w3.org/TR/2001/REC-SVG-20010904/DTD/svg10.dtd">
<svg version="1.0" xmlns="http://www.w3.org/2000/svg" viewBox="0 0 936.000000 108.000000"
 preserveAspectRatio="xMidYMid meet">
<metadata>
Created by potrace 1.16, written by Peter Selinger 2001-2019
</metadata>
<g transform="translate(0.000000,108.000000) scale(0.100000,-0.100000)"
fill="#CA5821" stroke="none">
<path d="M9340 870 c0 -116 -2 -210 -5 -210 -3 0 -27 11 -53 24 -128 64 -391
145 -622 191 -290 58 -589 85 -945 85 -581 0 -1136 -74 -1810 -242 -313 -77
-617 -149 -835 -198 -1902 -423 -3186 -376 -4837 179 l-233 78 0 -388 0 -389
4680 0 4680 0 0 540 c0 353 -3 540 -10 540 -6 0 -10 -77 -10 -210z"/>
</g>
</svg>
