<?xml version="1.0" standalone="no"?>
<svg xmlns="http://www.w3.org/2000/svg" viewBox="0 0 1440 320">
  <g transform="translate(0.000000,92.000000) scale(0.100000,-0.100000)"
fill="#000000" stroke="none">
    <path d="M2 663 l3 -258 89 -33 c702 -261 1720 -298 2821 -101 200 36 213 39
    635 136 1007 232 1616 334 2345 395 238 20 965 17 1205 -5 672 -62 1342 -203
    2043 -430 l167 -55 0 304 0 304 -4655 0 -4655 0 2 -257z"/>
    <path d="M9320 460 c0 -453 0 -460 20 -460 20 0 20 7 20 460 0 453 0 460 -20
    460 -20 0 -20 -7 -20 -460z"/>
  </g>
</svg>
